<svg xmlns="http://www.w3.org/2000/svg" width="720" height="400" viewBox="0 0 720 400"><defs><radialGradient id="a"><stop stop-color="#40624c"/><stop offset="1" stop-color="#152b28"/></radialGradient></defs><path fill="url(#a)" d="M0 0h720v400H0z"/><g fill="none" stroke="#7ba684" opacity=".25"><circle cx="360" cy="215" r="140"/><circle cx="360" cy="215" r="123"/><path d="M0 320h720M0 240h720M0 160h720M0 80h720M120 0v400M240 0v400M360 0v400M480 0v400M600 0v400"/></g><g transform="translate(360 225) scale(2.7)"><ellipse cy="24" rx="37" ry="12" fill="#0b1c1b"/><path fill="#24343a" d="M-17 7h14v23h-14zM6 7h14v23H6z"/><path fill="#36736a" stroke="#132b27" d="m-20-22 35 3 18 40-26 7-14-9-29 5z"/><path fill="#a2b9a7" d="m-16-15 28 2 6 25-20 9-17-14z"/><path fill="#617f77" d="m-16-15 14 7v29l-17-14z"/><path fill="#d1b674" d="M-18 8h37v6h-37z"/><path fill="#659b86" stroke="#172b29" d="m-22-23 6-22 18-16 21 19 3 24-14 11-28-3z"/><path fill="#172a2b" d="m-15-30 16-16 17 14-5 19-26-2z"/><path fill="#baf2b2" d="M-9-30h7v4h-7zM6-30h7v4H6z"/><path fill="#bad1b4" d="m-15-14 27 1-7 11-17-4z"/><g transform="rotate(-15)"><path fill="#253b3c" d="M5-7h49v14H5z"/><path fill="#a9c4b0" d="M18-9h42v9H18z"/><path fill="#ddc387" d="M22-5h42v4H22z"/><path fill="#76e6c5" d="M48-14h6v6h-6z"/><path fill="#726650" d="M13 4h12v14H13z"/></g></g></svg>
